<?xml version="1.0" standalone="no"?>
<!DOCTYPE svg PUBLIC "-//W3C//DTD SVG 20010904//EN"
 "http://www.w3.org/TR/2001/REC-SVG-20010904/DTD/svg10.dtd">
<svg version="1.0" xmlns="http://www.w3.org/2000/svg"
 width="968.000000pt" height="968.000000pt" viewBox="0 0 968.000000 968.000000"
 preserveAspectRatio="xMidYMid meet">
<metadata>
Created by potrace 1.11, written by Peter Selinger 2001-2013
</metadata>
<g transform="translate(0.000000,968.000000) scale(0.100000,-0.100000)"
fill="#000000" stroke="none">
<path d="M3000 9229 c-283 -36 -580 -167 -814 -358 -95 -77 -238 -231 -232
-248 3 -7 0 -12 -6 -10 -6 1 -20 -15 -32 -35 -11 -20 -53 -90 -92 -155 -39
-65 -158 -269 -264 -453 -106 -184 -462 -801 -790 -1370 -329 -569 -613 -1066
-632 -1105 -90 -179 -132 -381 -132 -640 0 -267 39 -458 132 -645 26 -52 178
-320 338 -595 160 -275 436 -752 614 -1060 178 -308 431 -747 563 -975 132
-228 261 -447 288 -485 47 -69 186 -214 264 -276 147 -117 361 -231 537 -288
202 -64 94 -61 2052 -61 1158 0 1811 4 1866 10 242 30 524 149 747 316 149
111 296 270 347 373 13 25 188 332 390 681 203 349 470 811 594 1025 124 215
289 500 367 635 441 762 419 722 464 862 85 268 93 601 20 888 -39 153 -144
360 -451 890 -129 223 -321 556 -428 740 -106 184 -273 472 -370 640 -97 168
-263 456 -369 640 -245 425 -284 484 -401 600 -203 201 -495 366 -765 431
-111 26 -137 23 -40 -6 223 -66 387 -161 554 -320 368 -351 601 -895 716
-1665 28 -188 55 -578 55 -805 0 -216 -27 -663 -50 -830 -11 -82 -25 -184 -30
-225 -11 -98 -63 -366 -105 -550 -161 -700 -421 -1312 -794 -1870 -114 -170
-163 -235 -354 -465 -91 -110 -162 -201 -157 -203 4 -2 35 8 69 22 34 13 61
21 61 16 0 -8 -7 -11 -190 -73 -454 -154 -897 -255 -1365 -309 -147 -17 -835
-17 -1010 0 -288 29 -697 99 -737 126 -9 7 -91 81 -181 164 -565 524 -1004
1122 -1304 1777 -30 66 -99 239 -154 383 l-99 264 26 121 c93 447 246 919 420
1299 193 423 484 879 776 1218 184 214 143 184 318 239 305 96 482 141 755
195 343 66 646 96 979 96 374 0 582 -19 1008 -92 l248 -42 147 -136 c603 -557
1031 -1139 1338 -1820 45 -100 208 -523 232 -602 10 -35 20 -17 32 60 6 42 23
149 36 237 30 193 62 575 71 855 13 433 -44 1014 -137 1385 -186 743 -513
1234 -969 1457 -102 50 -208 84 -342 110 l-113 22 -1725 2 c-949 1 -1754 -2
-1790 -7z m6577 -4001 c-3 -8 -6 -5 -6 6 -1 11 2 17 5 13 3 -3 4 -12 1 -19z
m10 -60 c-3 -8 -6 -5 -6 6 -1 11 2 17 5 13 3 -3 4 -12 1 -19z m10 -195 c-2
-16 -4 -3 -4 27 0 30 2 43 4 28 2 -16 2 -40 0 -55z m-10 -115 c-3 -7 -5 -2 -5
12 0 14 2 19 5 13 2 -7 2 -19 0 -25z m-10 -60 c-3 -8 -6 -5 -6 6 -1 11 2 17 5
13 3 -3 4 -12 1 -19z m-10 -40 c-3 -8 -6 -5 -6 6 -1 11 2 17 5 13 3 -3 4 -12
1 -19z m-66 -235 c-12 -20 -14 -14 -5 12 4 9 9 14 11 11 3 -2 0 -13 -6 -23z
m-101 -233 c-6 -11 -13 -20 -16 -20 -2 0 0 9 6 20 6 11 13 20 16 20 2 0 0 -9
-6 -20z m-86 -145 c-9 -14 -18 -25 -21 -25 -5 0 5 18 20 38 17 22 18 13 1 -13z
m-34 -59 c0 -2 -8 -10 -17 -17 -16 -13 -17 -12 -4 4 13 16 21 21 21 13z m-70
-100 c0 -2 -8 -10 -17 -17 -16 -13 -17 -12 -4 4 13 16 21 21 21 13z m-60 -76
c-12 -16 -24 -30 -26 -30 -7 0 5 20 24 43 24 27 25 20 2 -13z m-48 -62 c-7 -7
-12 -8 -12 -2 0 14 12 26 19 19 2 -3 -1 -11 -7 -17z m-22 -21 c0 -2 -12 -14
-27 -28 l-28 -24 24 28 c23 25 31 32 31 24z m-60 -70 c0 -1 -24 -25 -52 -52
l-53 -50 50 53 c46 48 55 57 55 49z m-207 -210 c-30 -34 -223 -206 -276 -246
-29 -21 -29 -20 4 10 19 19 76 69 125 111 49 42 107 95 129 117 47 49 58 54
18 8z m-323 -281 c0 -8 -233 -178 -361 -264 -163 -108 -215 -139 -205 -124 4
6 28 24 54 39 82 48 273 178 392 266 118 89 120 90 120 83z m-580 -401 c0 -2
-13 -11 -30 -20 -38 -19 -40 -11 -2 9 31 17 32 18 32 11z m-75 -44 c-13 -12
-176 -106 -201 -115 -35 -14 -4 7 98 65 106 59 119 66 103 50z m-229 -129 c-5
-9 -273 -144 -322 -163 -58 -21 -11 5 153 86 183 92 176 89 169 77z m-361
-181 c-6 -5 -44 -23 -85 -41 -41 -18 -111 -47 -154 -66 -92 -39 -113 -40 -28
-1 235 107 289 129 267 108z m-336 -145 c-9 -8 -162 -66 -166 -63 -5 5 138 66
156 67 8 0 12 -2 10 -4z m761 -1300 c0 -2 -8 -10 -17 -17 -16 -13 -17 -12 -4
4 13 16 21 21 21 13z m-4643 -582 c-3 -3 -12 -4 -19 -1 -8 3 -5 6 6 6 11 1 17
-2 13 -5z"/>
<path d="M6658 9223 c7 -3 16 -2 19 1 4 3 -2 6 -13 5 -11 0 -14 -3 -6 -6z"/>
</g>
</svg>
