<?xml version="1.0" encoding="UTF-8"?>
<svg width="16px" height="16px" viewBox="0 0 16 16" version="1.1" xmlns="http://www.w3.org/2000/svg" xmlns:xlink="http://www.w3.org/1999/xlink">
    <title>facebook-square</title>
    <g id="Installation-Progress-UI" stroke="none" stroke-width="1" fill="none" fill-rule="evenodd">
        <g id="Installation-1-Copy-5" transform="translate(-67.000000, -964.000000)" fill="#FFFFFF" fill-rule="nonzero">
            <g id="Group-3" transform="translate(44.000000, 952.000000)">
                <g id="Group-2-Copy-3">
                    <g id="facebook-square" transform="translate(23.000000, 12.000000)">
                        <path d="M16,1.71428571 L16,14.2857143 C16,15.2321429 15.2321429,16 14.2857143,16 L11.2392857,16 L11.2392857,9.67142857 L13.4035714,9.67142857 L13.7142857,7.25714286 L11.2392857,7.25714286 L11.2392857,5.71428571 C11.2392857,5.01428571 11.4321429,4.53928571 12.4357143,4.53928571 L13.7142857,4.53928571 L13.7142857,2.38214286 C13.4928571,2.35357143 12.7357143,2.28571429 11.85,2.28571429 C10.0071429,2.28571429 8.74285714,3.41071429 8.74285714,5.47857143 L8.74285714,7.26071429 L6.57142857,7.26071429 L6.57142857,9.675 L8.74642857,9.675 L8.74642857,16 L1.71428571,16 C0.767857143,16 0,15.2321429 0,14.2857143 L0,1.71428571 C0,0.767857143 0.767857143,0 1.71428571,0 L14.2857143,0 C15.2321429,0 16,0.767857143 16,1.71428571 Z" id="Path"></path>
                    </g>
                </g>
            </g>
        </g>
    </g>
</svg>