<?xml version="1.0" encoding="UTF-8"?>
<svg width="20px" height="16px" viewBox="0 0 20 16" version="1.1" xmlns="http://www.w3.org/2000/svg" xmlns:xlink="http://www.w3.org/1999/xlink">
    <title>twitter</title>
    <g id="Installation-Progress-UI" stroke="none" stroke-width="1" fill="none" fill-rule="evenodd">
        <g id="Installation-1-Copy-5" transform="translate(-224.000000, -964.000000)" fill="#FFFFFF" fill-rule="nonzero">
            <g id="Group-3" transform="translate(44.000000, 952.000000)">
                <g id="Group-2-Copy" transform="translate(157.000000, 0.000000)">
                    <g id="twitter" transform="translate(23.000000, 12.000000)">
                        <path d="M17.9442107,3.98748548 C17.9569061,4.16247712 17.9569061,4.33750724 17.9569061,4.51249889 C17.9569061,9.84997487 13.832554,16 6.29443865,16 C3.97208583,16 1.81473365,15.3374712 0,14.1875206 C0.329962226,14.2249968 0.647190028,14.2375017 0.989847617,14.2375017 C2.90606604,14.2375017 4.6700573,13.6000212 6.07869562,12.5125181 C4.27665733,12.4750034 2.76649518,11.3125095 2.24618065,9.71249793 C2.5,9.74997415 2.75379982,9.77498395 3.0203243,9.77498395 C3.38833355,9.77498395 3.75638186,9.72496435 4.09900039,9.637507 C2.22082899,9.26247544 0.81215161,7.63749258 0.81215161,5.67499285 L0.81215161,5.62501172 C1.3578178,5.92501389 1.9923906,6.11251043 2.66493228,6.13748175 C1.56086547,5.4124669 0.837542334,4.17498202 0.837542334,2.77497192 C0.837542334,2.02498575 1.04055094,1.3374856 1.39590389,0.737481273 C3.41368521,3.18747971 6.44670487,4.78745278 9.84769472,4.9624829 C9.78425697,4.66248073 9.74617088,4.35001214 9.74617088,4.03750508 C9.74617088,1.81247941 11.5735999,0 13.8451713,0 C15.0253712,0 16.0913519,0.487498707 16.8401048,1.27499958 C17.7664757,1.10000794 18.6547994,0.762491072 19.4416384,0.300002164 C19.1370279,1.23752336 18.4898379,2.02502423 17.6396002,2.52498936 C18.4644862,2.43753201 19.2639815,2.21248229 20,1.90001371 C19.4417166,2.699981 18.743706,3.41245248 17.9442107,3.98748548 Z" id="Path"></path>
                    </g>
                </g>
            </g>
        </g>
    </g>
</svg>