<?xml version="1.0" encoding="UTF-8"?>
<svg width="213px" height="48px" viewBox="0 0 213 48" version="1.1" xmlns="http://www.w3.org/2000/svg" xmlns:xlink="http://www.w3.org/1999/xlink">
    <title>easydiscuss-white</title>
    <g id="easydiscuss-white" stroke="none" stroke-width="1" fill="none" fill-rule="evenodd">
        <g id="Group" fill-rule="nonzero">
            <path d="M58.098,30.708 C61.114,30.708 63.844,28.836 64.598,26.236 L61.946,25.846 C61.452,27.302 59.814,28.342 58.046,28.342 C55.888,28.342 54.25,26.782 53.912,24.442 L65.04,24.468 C65.066,24.156 65.092,23.766 65.092,23.454 C65.092,19.372 62.18,16.46 58.072,16.46 C53.964,16.46 51,19.372 51,23.428 C51,27.666 53.964,30.708 58.098,30.708 Z M62.154,22.362 L53.938,22.362 C54.302,20.256 55.862,18.826 57.994,18.826 C60.178,18.826 61.842,20.282 62.154,22.362 Z M74.218,30.708 C76.272,30.708 78.014,29.772 79.132,28.212 L79.132,30.188 L81.966,30.188 L81.966,16.98 L79.132,16.98 L79.132,18.956 C78.014,17.396 76.272,16.46 74.218,16.46 C70.344,16.46 67.588,19.45 67.588,23.584 C67.588,27.718 70.344,30.708 74.218,30.708 Z M74.764,28.186 C72.242,28.186 70.396,26.236 70.396,23.584 C70.396,20.906 72.242,18.982 74.764,18.982 C77.286,18.982 79.106,20.906 79.106,23.584 C79.106,26.262 77.286,28.186 74.764,28.186 Z M91.3,30.734 C94.654,30.734 97.046,28.836 97.046,26.21 C97.046,23.22 93.796,22.674 91.274,22.258 C89.142,21.894 88.154,21.582 88.154,20.594 C88.154,19.528 89.35,18.748 90.78,18.748 C92.678,18.748 94.056,19.658 94.082,20.958 L96.708,20.958 C96.708,18.332 94.212,16.434 90.806,16.434 C87.816,16.434 85.502,18.202 85.502,20.62 C85.502,23.766 87.842,24.156 90.936,24.624 C92.262,24.806 94.316,25.144 94.316,26.522 C94.342,27.614 93.068,28.42 91.3,28.42 C89.324,28.42 87.894,27.276 87.894,25.716 L85.294,25.716 C85.294,28.628 87.816,30.734 91.3,30.734 Z M102.558,36.064 C105.366,36.064 106.536,33.542 107.68,30.5 L112.854,16.98 L109.89,16.98 L106.302,26.73 L102.168,16.98 L99.074,16.98 L105.028,30.24 C104.352,31.878 103.806,33.698 101.986,33.698 C101.466,33.698 100.816,33.542 100.244,33.334 L100.244,35.622 C100.92,35.908 101.804,36.064 102.558,36.064 Z M121.408,30.708 C123.436,30.708 125.126,29.824 126.27,28.342 L126.27,30.188 L129.026,30.188 L129.026,11 L126.192,11 L126.192,18.774 C125.074,17.318 123.384,16.46 121.408,16.46 C117.56,16.46 114.778,19.45 114.778,23.584 C114.778,27.718 117.586,30.708 121.408,30.708 Z M121.954,28.056 C119.458,28.056 117.586,26.21 117.586,23.584 C117.586,21.01 119.432,19.112 121.954,19.112 C124.476,19.112 126.296,21.01 126.296,23.584 C126.296,26.158 124.476,28.056 121.954,28.056 Z M134.538,14.848 C135.552,14.848 136.28,14.12 136.28,13.106 C136.28,12.118 135.552,11.416 134.538,11.416 C133.498,11.416 132.77,12.118 132.77,13.106 C132.77,14.12 133.498,14.848 134.538,14.848 Z M135.942,30.188 L135.942,16.98 L133.134,16.98 L133.134,30.188 L135.942,30.188 Z M145.614,30.734 C148.968,30.734 151.36,28.836 151.36,26.21 C151.36,23.22 148.11,22.674 145.588,22.258 C143.456,21.894 142.468,21.582 142.468,20.594 C142.468,19.528 143.664,18.748 145.094,18.748 C146.992,18.748 148.37,19.658 148.396,20.958 L151.022,20.958 C151.022,18.332 148.526,16.434 145.12,16.434 C142.13,16.434 139.816,18.202 139.816,20.62 C139.816,23.766 142.156,24.156 145.25,24.624 C146.576,24.806 148.63,25.144 148.63,26.522 C148.656,27.614 147.382,28.42 145.614,28.42 C143.638,28.42 142.208,27.276 142.208,25.716 L139.608,25.716 C139.608,28.628 142.13,30.734 145.614,30.734 Z M160.928,30.708 C164.178,30.708 166.96,28.602 167.506,25.716 L164.802,25.378 C164.334,27.068 162.8,28.29 160.928,28.29 C158.562,28.29 156.768,26.314 156.742,23.584 C156.742,20.854 158.588,18.878 160.928,18.878 C162.748,18.878 164.36,20.1 164.776,21.816 L167.48,21.478 C167.012,18.566 164.256,16.46 160.902,16.46 C156.872,16.46 153.934,19.45 153.934,23.584 C153.934,27.718 156.872,30.708 160.928,30.708 Z M175.722,30.708 C177.412,30.708 179.076,29.876 179.986,28.498 L179.986,30.188 L182.768,30.188 L182.768,16.98 L179.96,16.98 L179.96,24.572 C179.96,26.678 178.296,28.186 176.346,28.186 C174.344,28.186 173.2,26.782 173.2,24.832 L173.2,16.98 L170.366,16.98 L170.366,25.04 C170.366,28.316 172.472,30.708 175.722,30.708 Z M192.102,30.734 C195.456,30.734 197.848,28.836 197.848,26.21 C197.848,23.22 194.598,22.674 192.076,22.258 C189.944,21.894 188.956,21.582 188.956,20.594 C188.956,19.528 190.152,18.748 191.582,18.748 C193.48,18.748 194.858,19.658 194.884,20.958 L197.51,20.958 C197.51,18.332 195.014,16.434 191.608,16.434 C188.618,16.434 186.304,18.202 186.304,20.62 C186.304,23.766 188.644,24.156 191.738,24.624 C193.064,24.806 195.118,25.144 195.118,26.522 C195.144,27.614 193.87,28.42 192.102,28.42 C190.126,28.42 188.696,27.276 188.696,25.716 L186.096,25.716 C186.096,28.628 188.618,30.734 192.102,30.734 Z M206.636,30.734 C209.99,30.734 212.382,28.836 212.382,26.21 C212.382,23.22 209.132,22.674 206.61,22.258 C204.478,21.894 203.49,21.582 203.49,20.594 C203.49,19.528 204.686,18.748 206.116,18.748 C208.014,18.748 209.392,19.658 209.418,20.958 L212.044,20.958 C212.044,18.332 209.548,16.434 206.142,16.434 C203.152,16.434 200.838,18.202 200.838,20.62 C200.838,23.766 203.178,24.156 206.272,24.624 C207.598,24.806 209.652,25.144 209.652,26.522 C209.678,27.614 208.404,28.42 206.636,28.42 C204.66,28.42 203.23,27.276 203.23,25.716 L200.63,25.716 C200.63,28.628 203.152,30.734 206.636,30.734 Z" id="easydiscuss" fill="#FFFFFF"></path>
            <g id="easydiscuss-128" fill="#3DAB7C">
                <path d="M13.3899717,27.7403429 L13.3899717,20.2713905 L13.3892283,20.1712 C13.3951752,19.9692952 13.447954,19.771581 13.5445912,19.5952 L13.5416177,19.5932952 C13.6434584,19.4096762 13.7913876,19.2496762 13.9824319,19.1357714 L17.210485,17.2089143 L17.210485,17.2085333 L20.4322195,15.2866286 C20.6303257,15.1677714 20.848131,15.1136762 21.0625912,15.1178667 C21.2766796,15.1136762 21.494485,15.1677714 21.6925912,15.2866286 L24.9143257,17.2085333 L24.9143257,17.2089143 L28.1423788,19.1357714 C28.333423,19.2496762 28.4817239,19.4096762 28.5831929,19.5932952 L28.5794761,19.5952 C28.6761133,19.771581 28.7296354,19.9692952 28.7355823,20.1712 L28.7355823,27.8416762 C28.7296354,28.0432 28.6761133,28.2409143 28.5794761,28.4172952 L28.5831929,28.418819 C28.4817239,28.602819 28.333423,28.7620571 28.1423788,28.8763429 L24.9143257,30.803581 L21.6925912,32.7262476 C21.494485,32.8443429 21.2766796,32.8980571 21.0625912,32.8942476 C20.848131,32.8980571 20.6303257,32.8443429 20.4322195,32.7262476 L17.210485,30.803581 L13.9824319,28.8763429 C13.7913876,28.7620571 13.6434584,28.602819 13.5416177,28.418819 L13.5445912,28.4172952 C13.447954,28.2409143 13.3951752,28.0432 13.3892283,27.8416762 L13.3899717,27.7403429 Z" id="Shape"></path>
                <path d="M0.350644248,34.0870476 L0.350644248,13.9251429 L0.349157522,13.6535238 C0.363653097,13.1091429 0.509723894,12.5750476 0.769529204,12.0992381 L0.759493805,12.0942857 C1.03453805,11.5986667 1.43372389,11.1670476 1.95073274,10.859619 L10.6648035,5.65847619 L19.3606619,0.468380952 C19.8958832,0.148380952 20.4846265,0.00247619048 21.0625912,0.0131428571 C21.6401841,0.00247619048 22.2274407,0.148380952 22.7641487,0.468380952 L28.7355823,4.03219048 L28.7355823,11.5868571 L28.2602018,11.3030476 L22.2408212,7.71066667 C21.8691398,7.48933333 21.4625204,7.38761905 21.0625912,7.3952381 C20.6622903,7.38761905 20.2552991,7.48933333 19.8843611,7.71066667 L13.8638655,11.3030476 L7.83073274,14.9045714 C7.4735469,15.1171429 7.19701593,15.4154286 7.00597168,15.7594286 L7.01266195,15.7628571 C6.83313982,16.092 6.73315752,16.4615238 6.72237876,16.8390476 L6.72312212,17.0264762 L6.72312212,30.9849524 L6.72237876,31.1735238 C6.73315752,31.5506667 6.83313982,31.9201905 7.01266195,32.2493333 L7.00597168,32.2531429 C7.19701593,32.596 7.4735469,32.8942857 7.83073274,33.108 L13.8638655,36.7091429 L19.8843611,40.3020952 C20.2552991,40.5234286 20.6622903,40.624 21.0625912,40.6171429 C21.4625204,40.624 21.8691398,40.5234286 22.2408212,40.3020952 L28.2602018,36.7091429 L34.2933345,33.108 C34.6503717,32.8942857 34.927646,32.596 35.1179469,32.2531429 L35.1112566,32.2493333 C35.2915221,31.9201905 35.3922478,31.5506667 35.4026549,31.1735238 L35.4019115,31.099619 L35.4026549,31.099619 L35.4026549,8.012 L40.1735575,10.859619 C40.6894513,11.1670476 41.0893805,11.5986667 41.3640531,12.0942857 L41.3543894,12.0992381 C41.6145664,12.5750476 41.7602655,13.1091429 41.7755044,13.6535238 L41.7747611,13.7293333 L41.7755044,13.7293333 L41.7755044,34.252381 L41.7740177,34.252381 L41.7755044,34.3579048 C41.7602655,34.9034286 41.6145664,35.4375238 41.3543894,35.9121905 L41.3640531,35.9182857 C41.0893805,36.4135238 40.6894513,36.844381 40.1735575,37.1525714 L31.4592637,42.3531429 L31.4592637,42.3539048 L22.7641487,47.543619 C22.2274407,47.863619 21.6401841,48.0087619 21.0625912,48.0000249 C20.4846265,48.0087619 19.8958832,47.863619 19.3606619,47.543619 L10.6648035,42.3539048 L10.6648035,42.3531429 L1.95073274,37.1525714 C1.43372389,36.844381 1.03453805,36.4135238 0.759493805,35.9182857 L0.769529204,35.9121905 C0.509723894,35.4375238 0.363653097,34.9034286 0.349157522,34.3579048 L0.350644248,34.0870476 Z" id="Shape"></path>
            </g>
        </g>
    </g>
</svg>